<svg width="29" height="29" viewBox="0 0 29 29" fill="none" xmlns="http://www.w3.org/2000/svg">
<path d="M14.5001 0C6.50475 0 0 6.50449 0 14.4996C0 22.4952 6.50475 29 14.5001 29C22.4954 29 29 22.4951 29 14.4996C29 6.50449 22.4954 0 14.5001 0ZM14.5001 26.9214C7.65089 26.9214 2.07859 21.349 2.07859 14.4996C2.07859 7.65061 7.65089 2.07856 14.5001 2.07856C21.3492 2.07856 26.9214 7.65061 26.9214 14.4996C26.9214 21.349 21.3492 26.9214 14.5001 26.9214Z" fill="#8B9F69"/>
<path d="M21.9556 14.2569H15.1414V6.8085C15.1414 6.23454 14.6762 5.76922 14.1021 5.76922C13.5282 5.76922 13.0628 6.23454 13.0628 6.8085V15.2962C13.0628 15.8702 13.5282 16.3355 14.1021 16.3355H21.9556C22.5297 16.3355 22.9949 15.8702 22.9949 15.2962C22.9949 14.7223 22.5296 14.2569 21.9556 14.2569Z" fill="#8B9F69"/>
</svg>
