<svg width="35" height="35" viewBox="0 0 35 35" fill="none" xmlns="http://www.w3.org/2000/svg">
<path d="M19.4945 34H15.5084C15.3373 34 15.1719 33.9389 15.042 33.8278C14.912 33.7167 14.826 33.5627 14.7995 33.3938L14.0541 28.659C13.3596 28.4463 12.6869 28.1678 12.0452 27.8276L8.17095 30.6555C8.03261 30.7571 7.86243 30.8057 7.69131 30.7925C7.52018 30.7794 7.35944 30.7053 7.23826 30.5838L4.41867 27.7587C4.29712 27.6375 4.22305 27.4768 4.20989 27.3057C4.19672 27.1346 4.24534 26.9644 4.34692 26.8261L7.17512 22.9522C6.83503 22.3105 6.55684 21.6379 6.34431 20.9435L1.60912 20.1981C1.44025 20.1723 1.28613 20.0871 1.17447 19.9579C1.06281 19.8286 1.00095 19.6637 1 19.4929V15.5078C0.999958 15.3369 1.06093 15.1716 1.17194 15.0417C1.28296 14.9117 1.43671 14.8257 1.60553 14.799L6.34073 14.0529C6.55325 13.3585 6.83144 12.6859 7.17154 12.0442L4.34333 8.17033C4.24176 8.032 4.19314 7.86184 4.2063 7.69073C4.21946 7.51962 4.29354 7.35889 4.41508 7.23772L7.23539 4.41837C7.35657 4.29684 7.51731 4.22277 7.68844 4.20961C7.85956 4.19645 8.02974 4.24507 8.16808 4.34664L12.0423 7.17459C12.684 6.83431 13.3567 6.5559 14.0512 6.34313L14.7966 1.60835C14.8228 1.43853 14.909 1.28373 15.0396 1.17209C15.1702 1.06045 15.3365 0.999383 15.5084 1H19.4945C19.6655 0.99999 19.8309 1.06106 19.9609 1.17221C20.0909 1.28335 20.1769 1.43726 20.2034 1.6062L20.9488 6.34098C21.6433 6.55375 22.316 6.83216 22.9577 7.17244L26.8319 4.34448C26.9703 4.24291 27.1404 4.1943 27.3116 4.20746C27.4827 4.22062 27.6434 4.29469 27.7646 4.41622L30.5849 7.23557C30.7065 7.35674 30.7805 7.51746 30.7937 7.68857C30.8069 7.85969 30.7582 8.02985 30.6567 8.16818L27.8285 12.0421C28.1686 12.6838 28.4467 13.3564 28.6593 14.0508L33.3945 14.7969C33.5633 14.8235 33.717 14.9096 33.8281 15.0395C33.9391 15.1695 34 15.3348 34 15.5057V19.4915C34 19.6625 33.9389 19.8279 33.8278 19.9578C33.7166 20.0878 33.5627 20.1738 33.3938 20.2003L28.6586 20.9456C28.446 21.6401 28.1678 22.3127 27.8277 22.9543L30.6559 26.8282C30.7575 26.9666 30.8061 27.1367 30.793 27.3078C30.7798 27.479 30.7057 27.6397 30.5842 27.7608L27.761 30.5809C27.6398 30.7024 27.4791 30.7765 27.308 30.7897C27.1369 30.8028 26.9667 30.7542 26.8283 30.6527L22.9541 27.8247C22.3124 28.165 21.6397 28.4434 20.9452 28.6562L20.1998 33.3909C20.174 33.5598 20.0888 33.7139 19.9595 33.8255C19.8302 33.9372 19.6653 33.9991 19.4945 34ZM16.1225 32.5652H18.8818L19.6036 27.9797C19.6253 27.8417 19.6869 27.7131 19.7807 27.6096C19.8745 27.5061 19.9965 27.4323 20.1316 27.3971C21.0153 27.1669 21.8631 26.8164 22.6513 26.3555C22.7719 26.2852 22.9104 26.2516 23.0499 26.2589C23.1893 26.2662 23.3235 26.3139 23.4362 26.3964L27.1871 29.1325L29.1385 27.1819L26.3979 23.4335C26.3155 23.3208 26.2679 23.1865 26.2607 23.0471C26.2536 22.9077 26.2873 22.7693 26.3577 22.6487C26.819 21.8604 27.1705 21.0127 27.4023 20.1292C27.4375 19.994 27.5115 19.872 27.6151 19.7782C27.7187 19.6844 27.8475 19.6229 27.9856 19.6012L32.5716 18.8839V16.1205L27.9856 15.3988C27.8476 15.377 27.719 15.3155 27.6155 15.2217C27.512 15.1279 27.4382 15.0059 27.403 14.8708C27.1723 13.9875 26.8221 13.1398 26.362 12.3513C26.2916 12.2307 26.2579 12.0923 26.265 11.9529C26.2722 11.8135 26.3198 11.6792 26.4022 11.5665L29.1349 7.81522L27.1871 5.8675L23.4355 8.60435C23.3228 8.68679 23.1886 8.73456 23.0491 8.74183C22.9097 8.74909 22.7712 8.71552 22.6506 8.64524C21.8625 8.18307 21.0147 7.83137 20.1309 7.6C19.9957 7.56484 19.8738 7.49099 19.78 7.38751C19.6862 7.28404 19.6246 7.15544 19.6029 7.01748L18.8811 2.43479H16.1218L15.4 7.02035C15.3784 7.15843 15.3169 7.28719 15.2231 7.39081C15.1293 7.49442 15.0072 7.56838 14.872 7.60359C13.9883 7.83382 13.1405 8.18432 12.3523 8.64524C12.2316 8.71552 12.0931 8.74909 11.9537 8.74183C11.8143 8.73456 11.68 8.68679 11.5674 8.60435L7.81581 5.8675L5.86792 7.81522L8.60501 11.5665C8.68734 11.6792 8.73499 11.8135 8.74213 11.9529C8.74927 12.0923 8.71558 12.2307 8.64519 12.3513C8.18386 13.1396 7.83241 13.9873 7.60057 14.8708C7.56541 15.0059 7.49155 15.1279 7.38807 15.2217C7.28458 15.3155 7.15597 15.377 7.018 15.3988L2.43491 16.1205V18.8803L7.02087 19.5977C7.15897 19.6193 7.28773 19.6808 7.39136 19.7746C7.49498 19.8684 7.56894 19.9904 7.60416 20.1257C7.83486 21.0089 8.18511 21.8566 8.64519 22.6451C8.71558 22.7657 8.74927 22.9041 8.74213 23.0435C8.73499 23.1829 8.68734 23.3172 8.60501 23.43L5.86792 27.1848L7.8194 29.1354L11.5674 26.3957C11.68 26.3132 11.8143 26.2654 11.9537 26.2582C12.0931 26.2509 12.2316 26.2845 12.3523 26.3548C13.1403 26.8169 13.9882 27.1686 14.872 27.4C15.0072 27.4352 15.1293 27.5092 15.2231 27.6128C15.3169 27.7164 15.3784 27.8452 15.4 27.9832L16.1225 32.5652Z" fill="#8B9F69"/>
<path d="M17.5014 23.9465C16.2263 23.9465 14.9798 23.5684 13.9196 22.8601C12.8594 22.1517 12.033 21.1449 11.5451 19.967C11.0571 18.789 10.9294 17.4929 11.1782 16.2424C11.427 14.9919 12.041 13.8432 12.9426 12.9417C13.8442 12.0401 14.993 11.4261 16.2436 11.1774C17.4942 10.9287 18.7905 11.0563 19.9685 11.5443C21.1466 12.0322 22.1535 12.8584 22.8619 13.9185C23.5703 14.9787 23.9484 16.225 23.9484 17.5C23.9457 19.2089 23.2656 20.8471 22.0572 22.0554C20.8487 23.2638 19.2104 23.9438 17.5014 23.9465ZM17.5014 12.4876C16.5101 12.4876 15.5411 12.7815 14.7168 13.3322C13.8926 13.8828 13.2502 14.6655 12.8708 15.5812C12.4914 16.497 12.3921 17.5046 12.5855 18.4768C12.7788 19.4489 13.2561 20.3419 13.957 21.0429C14.6579 21.7438 15.5509 22.2212 16.5231 22.4146C17.4953 22.6081 18.5031 22.5089 19.4189 22.1297C20.3348 21.7505 21.1176 21.1082 21.6684 20.2842C22.2193 19.4601 22.5133 18.4912 22.5135 17.5C22.512 16.1713 21.9834 14.8974 21.0438 13.9579C20.1042 13.0183 18.8302 12.4898 17.5014 12.4883V12.4876Z" fill="#8B9F69"/>
<path d="M19.4945 34H15.5084C15.3373 34 15.1719 33.9389 15.042 33.8278C14.912 33.7167 14.826 33.5627 14.7995 33.3938L14.0541 28.659C13.3596 28.4463 12.6869 28.1678 12.0452 27.8276L8.17095 30.6555C8.03261 30.7571 7.86243 30.8057 7.69131 30.7925C7.52018 30.7794 7.35944 30.7053 7.23826 30.5838L4.41867 27.7587C4.29712 27.6375 4.22305 27.4768 4.20989 27.3057C4.19672 27.1346 4.24534 26.9644 4.34692 26.8261L7.17512 22.9522C6.83503 22.3105 6.55684 21.6379 6.34431 20.9435L1.60912 20.1981C1.44025 20.1723 1.28613 20.0871 1.17447 19.9579C1.06281 19.8286 1.00095 19.6637 1 19.4929V15.5078C0.999958 15.3369 1.06093 15.1716 1.17194 15.0417C1.28296 14.9117 1.43671 14.8257 1.60553 14.799L6.34073 14.0529C6.55325 13.3585 6.83144 12.6859 7.17154 12.0442L4.34333 8.17033C4.24176 8.032 4.19314 7.86184 4.2063 7.69073C4.21946 7.51962 4.29354 7.35889 4.41508 7.23772L7.23539 4.41837C7.35657 4.29684 7.51731 4.22277 7.68844 4.20961C7.85956 4.19645 8.02974 4.24507 8.16808 4.34664L12.0423 7.17459C12.684 6.83431 13.3567 6.5559 14.0512 6.34313L14.7966 1.60835C14.8228 1.43853 14.909 1.28373 15.0396 1.17209C15.1702 1.06045 15.3365 0.999383 15.5084 1H19.4945C19.6655 0.99999 19.8309 1.06106 19.9609 1.17221C20.0909 1.28335 20.1769 1.43726 20.2034 1.6062L20.9488 6.34098C21.6433 6.55375 22.316 6.83216 22.9577 7.17244L26.8319 4.34448C26.9703 4.24291 27.1404 4.1943 27.3116 4.20746C27.4827 4.22062 27.6434 4.29469 27.7646 4.41622L30.5849 7.23557C30.7065 7.35674 30.7805 7.51746 30.7937 7.68857C30.8069 7.85969 30.7582 8.02985 30.6567 8.16818L27.8285 12.0421C28.1686 12.6838 28.4467 13.3564 28.6593 14.0508L33.3945 14.7969C33.5633 14.8235 33.717 14.9096 33.8281 15.0395C33.9391 15.1695 34 15.3348 34 15.5057V19.4915C34 19.6625 33.9389 19.8279 33.8278 19.9578C33.7166 20.0878 33.5627 20.1738 33.3938 20.2003L28.6586 20.9456C28.446 21.6401 28.1678 22.3127 27.8277 22.9543L30.6559 26.8282C30.7575 26.9666 30.8061 27.1367 30.793 27.3078C30.7798 27.479 30.7057 27.6397 30.5842 27.7608L27.761 30.5809C27.6398 30.7024 27.4791 30.7765 27.308 30.7897C27.1369 30.8028 26.9667 30.7542 26.8283 30.6527L22.9541 27.8247C22.3124 28.165 21.6397 28.4434 20.9452 28.6562L20.1998 33.3909C20.174 33.5598 20.0888 33.7139 19.9595 33.8255C19.8302 33.9372 19.6653 33.9991 19.4945 34ZM16.1225 32.5652H18.8818L19.6036 27.9797C19.6253 27.8417 19.6869 27.7131 19.7807 27.6096C19.8745 27.5061 19.9965 27.4323 20.1316 27.3971C21.0153 27.1669 21.8631 26.8164 22.6513 26.3555C22.7719 26.2852 22.9104 26.2516 23.0499 26.2589C23.1893 26.2662 23.3235 26.3139 23.4362 26.3964L27.1871 29.1325L29.1385 27.1819L26.3979 23.4335C26.3155 23.3208 26.2679 23.1865 26.2607 23.0471C26.2536 22.9077 26.2873 22.7693 26.3577 22.6487C26.819 21.8604 27.1705 21.0127 27.4023 20.1292C27.4375 19.994 27.5115 19.872 27.6151 19.7782C27.7187 19.6844 27.8475 19.6229 27.9856 19.6012L32.5716 18.8839V16.1205L27.9856 15.3988C27.8476 15.377 27.719 15.3155 27.6155 15.2217C27.512 15.1279 27.4382 15.0059 27.403 14.8708C27.1723 13.9875 26.8221 13.1398 26.362 12.3513C26.2916 12.2307 26.2579 12.0923 26.265 11.9529C26.2722 11.8135 26.3198 11.6792 26.4022 11.5665L29.1349 7.81522L27.1871 5.8675L23.4355 8.60435C23.3228 8.68679 23.1886 8.73456 23.0491 8.74183C22.9097 8.74909 22.7712 8.71552 22.6506 8.64524C21.8625 8.18307 21.0147 7.83137 20.1309 7.6C19.9957 7.56484 19.8738 7.49099 19.78 7.38751C19.6862 7.28404 19.6246 7.15544 19.6029 7.01748L18.8811 2.43479H16.1218L15.4 7.02035C15.3784 7.15843 15.3169 7.28719 15.2231 7.39081C15.1293 7.49442 15.0072 7.56838 14.872 7.60359C13.9883 7.83382 13.1405 8.18432 12.3523 8.64524C12.2316 8.71552 12.0931 8.74909 11.9537 8.74183C11.8143 8.73456 11.68 8.68679 11.5674 8.60435L7.81581 5.8675L5.86792 7.81522L8.60501 11.5665C8.68734 11.6792 8.73499 11.8135 8.74213 11.9529C8.74927 12.0923 8.71558 12.2307 8.64519 12.3513C8.18386 13.1396 7.83241 13.9873 7.60057 14.8708C7.56541 15.0059 7.49155 15.1279 7.38807 15.2217C7.28458 15.3155 7.15597 15.377 7.018 15.3988L2.43491 16.1205V18.8803L7.02087 19.5977C7.15897 19.6193 7.28773 19.6808 7.39136 19.7746C7.49498 19.8684 7.56894 19.9904 7.60416 20.1257C7.83486 21.0089 8.18511 21.8566 8.64519 22.6451C8.71558 22.7657 8.74927 22.9041 8.74213 23.0435C8.73499 23.1829 8.68734 23.3172 8.60501 23.43L5.86792 27.1848L7.8194 29.1354L11.5674 26.3957C11.68 26.3132 11.8143 26.2654 11.9537 26.2582C12.0931 26.2509 12.2316 26.2845 12.3523 26.3548C13.1403 26.8169 13.9882 27.1686 14.872 27.4C15.0072 27.4352 15.1293 27.5092 15.2231 27.6128C15.3169 27.7164 15.3784 27.8452 15.4 27.9832L16.1225 32.5652Z" stroke="#8B9F69" stroke-width="0.5"/>
<path d="M17.5014 23.9465C16.2263 23.9465 14.9798 23.5684 13.9196 22.8601C12.8594 22.1517 12.033 21.1449 11.5451 19.967C11.0571 18.789 10.9294 17.4929 11.1782 16.2424C11.427 14.9919 12.041 13.8432 12.9426 12.9417C13.8442 12.0401 14.993 11.4261 16.2436 11.1774C17.4942 10.9287 18.7905 11.0563 19.9685 11.5443C21.1466 12.0322 22.1535 12.8584 22.8619 13.9185C23.5703 14.9787 23.9484 16.225 23.9484 17.5C23.9457 19.2089 23.2656 20.8471 22.0572 22.0554C20.8487 23.2638 19.2104 23.9438 17.5014 23.9465ZM17.5014 12.4876C16.5101 12.4876 15.5411 12.7815 14.7168 13.3322C13.8926 13.8828 13.2502 14.6655 12.8708 15.5812C12.4914 16.497 12.3921 17.5046 12.5855 18.4768C12.7788 19.4489 13.2561 20.3419 13.957 21.0429C14.6579 21.7438 15.5509 22.2212 16.5231 22.4146C17.4953 22.6081 18.5031 22.5089 19.4189 22.1297C20.3348 21.7505 21.1176 21.1082 21.6684 20.2842C22.2193 19.4601 22.5133 18.4912 22.5135 17.5C22.512 16.1713 21.9834 14.8974 21.0438 13.9579C20.1042 13.0183 18.8302 12.4898 17.5014 12.4883V12.4876Z" stroke="#8B9F69" stroke-width="0.5"/>
</svg>
