<svg width="33" height="33" viewBox="0 0 33 33" fill="none" xmlns="http://www.w3.org/2000/svg">
<path d="M31.4089 16.9274C31.2706 16.6558 31.2706 16.3442 31.4089 16.0726L32.6916 13.5548C33.4058 12.1529 32.8399 10.4819 31.4034 9.75061L28.8234 8.43707C28.545 8.2954 28.3542 8.04326 28.2997 7.74556L27.7951 4.98513C27.5142 3.44819 26.0325 2.41541 24.4226 2.63397L21.5307 3.02648C21.2186 3.06876 20.91 2.97247 20.6835 2.76229L18.5844 0.813768C17.4155 -0.271224 15.5845 -0.271288 14.4157 0.813768L12.3165 2.76249C12.09 2.97273 11.7813 3.06883 11.4693 3.02668L8.57736 2.63416C6.96694 2.41547 5.48583 3.44839 5.20485 4.98532L4.70027 7.74562C4.64579 8.04339 4.45496 8.29547 4.17667 8.4372L1.59665 9.75073C0.160135 10.482 -0.40571 12.1531 0.308448 13.555L1.59107 16.0727C1.72944 16.3444 1.72944 16.656 1.59107 16.9276L0.308381 19.4453C-0.405778 20.8472 0.160068 22.5182 1.59658 23.2495L4.1766 24.5631C4.45496 24.7047 4.64579 24.9569 4.70027 25.2546L5.20485 28.015C5.46064 29.4141 6.71095 30.3953 8.14793 30.3952C8.28946 30.3952 8.43307 30.3857 8.57742 30.3661L11.4693 29.9736C11.7812 29.9311 12.09 30.0276 12.3165 30.2378L14.4157 32.1863C15.0002 32.7288 15.75 33.0001 16.5 33C17.2498 32.9999 18.0001 32.7287 18.5843 32.1863L20.6835 30.2378C20.91 30.0276 21.2187 29.9315 21.5307 29.9736L24.4226 30.3661C26.0333 30.5847 27.5142 29.5519 27.7951 28.0149L28.2998 25.2546C28.3543 24.9569 28.5451 24.7048 28.8234 24.5631L31.4034 23.2495C32.8399 22.5182 33.4058 20.8472 32.6916 19.4453L31.4089 16.9274ZM30.4737 21.5681L27.8937 22.8817C27.0711 23.3006 26.5069 24.0455 26.3461 24.9257L25.8415 27.686C25.7464 28.206 25.2454 28.5553 24.7005 28.4815L21.8086 28.089C20.8863 27.9636 19.9737 28.2484 19.3044 28.8697L17.2052 30.8182C16.8098 31.1851 16.1903 31.1851 15.7948 30.8182L13.6956 28.8696C13.1299 28.3445 12.3904 28.06 11.6183 28.06C11.4768 28.06 11.3342 28.0695 11.1914 28.0889L8.29954 28.4814C7.75505 28.5553 7.25362 28.206 7.15851 27.686L6.65386 24.9255C6.49292 24.0454 5.92882 23.3004 5.10618 22.8816L2.52615 21.5681C2.04011 21.3206 1.84867 20.7553 2.09028 20.281L3.37298 17.7632C3.78191 16.9604 3.78191 16.0396 3.37298 15.2368L2.09028 12.719C1.84867 12.2447 2.04011 11.6793 2.52615 11.4319L5.10618 10.1184C5.92875 9.6995 6.49292 8.95456 6.65379 8.07439L7.15838 5.31403C7.25349 4.79402 7.75445 4.44469 8.29941 4.51856L11.1913 4.91107C12.1132 5.0363 13.0261 4.75162 13.6955 4.13036L15.7947 2.18183C16.1901 1.81484 16.8096 1.81484 17.2051 2.18183L19.3042 4.13036C19.9736 4.75168 20.8864 5.0363 21.8084 4.91107L24.7003 4.51856C25.2449 4.44463 25.7463 4.79402 25.8414 5.31403L26.3459 8.07446C26.5069 8.95462 27.071 9.69963 27.8936 10.1184L30.4736 11.4319C30.9597 11.6793 31.1511 12.2447 30.9095 12.719L29.6268 15.2367C29.2179 16.0395 29.2179 16.9604 29.6268 17.7631L30.9095 20.2809C31.1512 20.7553 30.9598 21.3207 30.4737 21.5681Z" fill="#8B9F69"/>
<path d="M23.7474 9.54639C23.3602 9.17476 22.7322 9.17476 22.3449 9.54639L9.25403 22.1075C8.86672 22.4792 8.86672 23.0817 9.25403 23.4534C9.44768 23.6392 9.70152 23.7321 9.95529 23.7321C10.2091 23.7321 10.463 23.6392 10.6566 23.4534L23.7474 10.8923C24.1348 10.5206 24.1348 9.91809 23.7474 9.54639Z" fill="#8B9F69"/>
<path d="M12.5339 7.9351C10.5287 7.9351 8.89734 9.50046 8.89734 11.4245C8.89734 13.3485 10.5287 14.9139 12.5339 14.9139C14.5391 14.9139 16.1704 13.3485 16.1704 11.4245C16.1704 9.50046 14.5391 7.9351 12.5339 7.9351ZM12.5339 13.0105C11.6224 13.0105 10.881 12.299 10.881 11.4244C10.881 10.5499 11.6224 9.83838 12.5339 9.83838C13.4453 9.83838 14.1869 10.5499 14.1869 11.4244C14.1868 12.299 13.4453 13.0105 12.5339 13.0105Z" fill="#8B9F69"/>
<path d="M20.4678 18.086C18.4626 18.086 16.8312 19.6514 16.8312 21.5754C16.8312 23.4994 18.4626 25.0648 20.4678 25.0648C22.473 25.0648 24.1043 23.4994 24.1043 21.5754C24.1043 19.6514 22.473 18.086 20.4678 18.086ZM20.4678 23.1614C19.5564 23.1614 18.8148 22.45 18.8148 21.5754C18.8148 20.7008 19.5563 19.9894 20.4678 19.9894C21.3792 19.9894 22.1207 20.7008 22.1207 21.5754C22.1207 22.45 21.3792 23.1614 20.4678 23.1614Z" fill="#8B9F69"/>
</svg>
